<svg width="24" height="24" viewBox="0 0 24 24" fill="none" xmlns="http://www.w3.org/2000/svg">
<g id="alert-circle-filled" clip-path="url(#clip0_142_3300)">
<path id="Vector" d="M17 3.34C18.5083 4.21085 19.7629 5.46053 20.6398 6.9653C21.5167 8.47007 21.9854 10.1778 21.9994 11.9193C22.0135 13.6609 21.5725 15.376 20.72 16.8947C19.8676 18.4134 18.6332 19.6832 17.1392 20.5783C15.6452 21.4734 13.9434 21.9628 12.2021 21.9981C10.4608 22.0333 8.74055 21.6132 7.21155 20.7792C5.68256 19.9453 4.39787 18.7265 3.48467 17.2435C2.57146 15.7605 2.06141 14.0647 2.005 12.324L2 12L2.005 11.676C2.061 9.94899 2.56355 8.26596 3.46364 6.79099C4.36373 5.31602 5.63065 4.09945 7.14089 3.25988C8.65113 2.42031 10.3531 1.9864 12.081 2.00044C13.8089 2.01448 15.5036 2.476 17 3.34ZM12.01 15L11.883 15.007C11.64 15.0359 11.4159 15.153 11.2534 15.336C11.0909 15.519 11.0011 15.7552 11.0011 16C11.0011 16.2448 11.0909 16.481 11.2534 16.664C11.4159 16.847 11.64 16.9641 11.883 16.993L12 17L12.127 16.993C12.37 16.9641 12.5941 16.847 12.7566 16.664C12.9191 16.481 13.0089 16.2448 13.0089 16C13.0089 15.7552 12.9191 15.519 12.7566 15.336C12.5941 15.153 12.37 15.0359 12.127 15.007L12.01 15ZM12 7C11.7551 7.00003 11.5187 7.08996 11.3356 7.25271C11.1526 7.41547 11.0357 7.63975 11.007 7.883L11 8V12L11.007 12.117C11.0359 12.36 11.153 12.5841 11.336 12.7466C11.519 12.9091 11.7552 12.9989 12 12.9989C12.2448 12.9989 12.481 12.9091 12.664 12.7466C12.847 12.5841 12.9641 12.36 12.993 12.117L13 12V8L12.993 7.883C12.9643 7.63975 12.8474 7.41547 12.6644 7.25271C12.4813 7.08996 12.2449 7.00003 12 7Z" fill="#A6435B"/>
</g>
<defs>
<clipPath id="clip0_142_3300">
<rect width="24" height="24" fill="white"/>
</clipPath>
</defs>
</svg>
