<svg width="24" height="24" viewBox="0 0 24 24" fill="none" xmlns="http://www.w3.org/2000/svg">
<g id="arrow-badge-up-filled" clip-path="url(#clip0_36_47368)">
<path id="Vector" d="M11.375 6.21986L6.375 10.2199C6.25806 10.3135 6.16365 10.4322 6.09875 10.5672C6.03384 10.7022 6.00009 10.8501 6 10.9999V16.9999L6.006 17.1119C6.02594 17.2897 6.09323 17.4589 6.20086 17.6019C6.30848 17.7448 6.45249 17.8563 6.61787 17.9246C6.78325 17.993 6.96394 18.0157 7.14108 17.9904C7.31823 17.9651 7.48535 17.8927 7.625 17.7809L12 14.2799L16.375 17.7799C16.522 17.8976 16.6993 17.9714 16.8864 17.9928C17.0736 18.0142 17.2629 17.9823 17.4327 17.9008C17.6025 17.8193 17.7459 17.6915 17.8462 17.5321C17.9466 17.3727 17.9999 17.1882 18 16.9999V10.9999C17.9999 10.8501 17.9662 10.7022 17.9013 10.5672C17.8363 10.4322 17.7419 10.3135 17.625 10.2199L12.625 6.21986C12.4476 6.07786 12.2272 6.00049 12 6.00049C11.7728 6.00049 11.5524 6.07786 11.375 6.21986Z" fill="#242426"/>
</g>
<defs>
<clipPath id="clip0_36_47368">
<rect width="24" height="24" fill="white"/>
</clipPath>
</defs>
</svg>
