<svg xmlns="http://www.w3.org/2000/svg" width="165" height="45" viewBox="0 0 165 45" fill="none">
<path fill-rule="evenodd" clip-rule="evenodd" d="M57.5001 2.09582C55.3687 8.80849 48.2008 17.4409 40.0705 23.0876C33.4153 27.7096 24.2404 31.4975 16.7994 32.6957C15.0055 32.9843 13.183 34.6272 13.183 35.9555C13.183 37.0682 13.1525 37.0657 17.7313 36.3131C35.1681 33.4468 51.9663 21.8568 59.3139 7.62267C60.2545 5.80048 61.0241 3.84568 61.0241 3.27871C61.0241 2.20103 59.41 0 58.6196 0C58.3699 0 57.8662 0.943245 57.5001 2.09582ZM1.27928 4.29794C0.63964 4.71221 -0.00150415 6.07082 2.65076e-06 7.00822C0.00188616 8.17029 1.1271 9.87229 4.27896 13.482C8.6728 18.5142 15.7887 24.0257 21.77 27.0297C24.5926 28.4471 25.1957 28.4815 27.851 27.3735L29.8811 26.5267L26.5236 25.0121C17.7257 21.0433 10.7051 15.5577 5.12314 8.2901C4.013 6.84492 2.90851 5.29233 2.66856 4.84043C2.20559 3.96806 1.94566 3.8665 1.27928 4.29794ZM0.935353 14.9874C-0.127322 16.9795 0.393282 18.1237 3.86082 21.4199C7.47527 24.8553 10.6829 27.4418 13.4889 29.184C15.337 30.3314 15.6399 30.4052 17.6552 30.201C18.8505 30.0797 20.2281 29.8375 20.7163 29.6622C21.5285 29.371 21.3254 29.1851 18.3333 27.4772C13.4588 24.6946 9.67859 21.8057 5.39964 17.5914L1.56181 13.8122L0.935353 14.9874ZM47.3634 25.0154C43.1236 28.4128 38.8006 31.1033 33.8862 33.4023C30.1154 35.1664 23.4263 37.4978 20.2315 38.1612C19.1831 38.3786 19.182 38.3819 19.8228 39.4336C20.508 40.5584 21.7666 41.2807 23.0413 41.2807C24.3236 41.2807 31.2579 38.9028 35.2446 37.0963C39.7247 35.0659 46.5686 30.7132 49.4824 28.0409C51.072 26.5833 51.6066 25.8373 51.6066 25.0778C51.6066 24.0089 51.0133 22.6419 50.5575 22.6605C50.4094 22.6667 48.9719 23.7262 47.3634 25.0154ZM37.6686 38.7198C37.3579 38.9123 35.1542 39.8442 32.7715 40.7911C30.3889 41.7377 28.3931 42.5403 28.3362 42.5746C28.024 42.7646 28.8218 43.8773 29.6468 44.4012C31.0937 45.3207 32.732 45.1917 35.4868 43.9416C38.2936 42.6678 39.2843 41.5294 39.1073 39.7821C38.9765 38.4926 38.5475 38.1758 37.6686 38.7198Z" fill="#EEEEEE"/>
<path d="M85.5064 14.2434H90.6383V37.875H85.5064V28.1027H76.5671V37.875H71.4353V14.2434H76.5671V23.3566H85.5064V14.2434Z" fill="#EEEEEE"/>
<path d="M110.404 19.6157H114.112V37.842H110.222L109.792 36.2106C108.125 37.6608 106.15 38.3859 103.865 38.3859C102.055 38.3859 100.416 37.9684 98.9485 37.1334C97.4807 36.2985 96.3329 35.1449 95.5052 33.6727C94.6775 32.1896 94.2636 30.5416 94.2636 28.7289C94.2636 26.9271 94.6775 25.2957 95.5052 23.8345C96.3329 22.3623 97.4807 21.2142 98.9485 20.3903C100.416 19.5553 102.055 19.1378 103.865 19.1378C106.194 19.1378 108.197 19.8794 109.874 21.3625L110.404 19.6157ZM100.687 32.3049C101.636 33.2498 102.828 33.7222 104.262 33.7222C105.697 33.7222 106.884 33.2498 107.822 32.3049C108.771 31.3601 109.245 30.1681 109.245 28.7289C109.245 27.2897 108.771 26.0977 107.822 25.1528C106.884 24.208 105.697 23.7356 104.262 23.7356C102.828 23.7356 101.636 24.2135 100.687 25.1693C99.7486 26.1141 99.2796 27.3007 99.2796 28.7289C99.2796 30.1571 99.7486 31.3491 100.687 32.3049Z" fill="#EEEEEE"/>
<path d="M140.135 19.6487H145.036L139.043 37.875H135.07L130.915 28.4487L126.859 37.875H122.869L116.811 19.6487H121.843L125.452 30.5087L130.219 19.7805H131.61L136.527 30.5416L140.135 19.6487Z" fill="#EEEEEE"/>
<path d="M165 37.875H159.007L153.147 29.1573V37.875H148.197V13.0734H153.147V27.7401L158.643 19.6487H164.338L158.147 28.3334L165 37.875Z" fill="#EEEEEE"/>
</svg>